<?xml version="1.0" encoding="UTF-8" standalone="no"?>
<!DOCTYPE svg PUBLIC "-//W3C//DTD SVG 1.1//EN" "http://www.w3.org/Graphics/SVG/1.1/DTD/svg11.dtd">
<svg width="100%" height="100%" viewBox="0 0 1080 1080" version="1.1" xmlns="http://www.w3.org/2000/svg" xmlns:xlink="http://www.w3.org/1999/xlink" xml:space="preserve" xmlns:serif="http://www.serif.com/" style="fill-rule:evenodd;clip-rule:evenodd;stroke-linejoin:round;stroke-miterlimit:2;">
    <g transform="matrix(0.909219,0.909219,-0.909219,0.909219,641.32,-689.668)">
        <path d="M620.504,399.651C738.135,399.651 833.637,495.153 833.637,612.785C833.637,730.416 620.504,1325.86 620.504,1325.86C620.504,1325.86 407.371,730.416 407.371,612.785C407.371,495.153 502.873,399.651 620.504,399.651Z" style="fill:rgb(255,154,119);"/>
    </g>
    <g transform="matrix(0.645699,0.645699,-0.645699,0.645699,678.304,-402.709)">
        <path d="M620.504,399.651C738.135,399.651 833.637,495.153 833.637,612.785C833.637,730.416 620.504,1325.86 620.504,1325.86C620.504,1325.86 407.371,730.416 407.371,612.785C407.371,495.153 502.873,399.651 620.504,399.651Z" style="fill:rgb(255,187,134);"/>
    </g>
    <g transform="matrix(0.388949,0.388949,-0.438695,0.438695,736.35,-141.142)">
        <path d="M620.504,399.651C738.135,399.651 833.637,495.153 833.637,612.785C833.637,730.416 620.504,1325.86 620.504,1325.86C620.504,1325.86 407.371,730.416 407.371,612.785C407.371,495.153 502.873,399.651 620.504,399.651Z" style="fill:rgb(255,229,140);"/>
    </g>
    <g transform="matrix(1.13763,0,0,1.13763,372.899,-0.631011)">
        <circle cx="322.411" cy="296.219" r="55.494" style="fill:white;"/>
    </g>
</svg>
